# xmcd CD database file
#
# Track frame offsets:
#	150
#	14776
#	32918
#	53842
#	75569
#	92097
#	107860
#	125861
#	140939
#	154036
#	167480
#	182509
#	198639
#	215549
#	229601
#
# Disc length: 3250 seconds
#
# Revision: 1
# Processed by: cddbd v1.5.2PL0 Copyright (c) Steve Scherf et al.
# Submitted via: CDex 1.86
#
DISCID=d60cb00f
DTITLE=FRANCESCO TRISTANO - Piano Circle Songs
DYEAR=2017
DGENRE=Jazz
TTITLE0=FRANCESCO TRISTANO - Circle Song
TTITLE1=FRANCESCO TRISTANO - This too Shall Go
TTITLE2=FRANCESCO TRISTANO - Grey Light
TTITLE3=FRANCESCO TRISTANO - Never
TTITLE4=FRANCESCO TRISTANO - All I Have
TTITLE5=FRANCESCO TRISTANO FEAT. CHILLY GONZALES - Triangle Song
TTITLE6=FRANCESCO TRISTANO - Pastoral
TTITLE7=FRANCESCO TRISTANO - Circle Song II
TTITLE8=FRANCESCO TRISTANO - Merl
TTITLE9=FRANCESCO TRISTANO - Circle Song III
TTITLE10=FRANCESCO TRISTANO - Nuria's Lament
TTITLE11=FRANCESCO TRISTANO - La Franciscana
TTITLE12=FRANCESCO TRISTANO  FEAT. CHILLY GONZALES - Monologue for Two
TTITLE13=FRANCESCO TRISTANO FEAT. CHILLY GONZALES - Tryst
TTITLE14=FRANCESCO TRISTANO FEAT. CHILLY GONZALES - Third Haiku
EXTD=YEAR: 2017
EXTT0=
EXTT1=
EXTT2=
EXTT3=
EXTT4=
EXTT5=
EXTT6=
EXTT7=
EXTT8=
EXTT9=
EXTT10=
EXTT11=
EXTT12=
EXTT13=
EXTT14=
PLAYORDER=
